HIERARCHY
ROOT Hips
{
	OFFSET 0.000000 0.000000 0.000000
	CHANNELS 6 Xposition Yposition Zposition Zrotation Yrotation Xrotation 
	JOINT LHipJoint
	{
		OFFSET 0.000000 0.000000 0.000000
		CHANNELS 3 Zrotation Yrotation Xrotation
		JOINT LeftUpLeg
		{
			OFFSET 1.363060 -1.794630 0.839290
			CHANNELS 3 Zrotation Yrotation Xrotation
			JOINT LeftLeg
			{
				OFFSET 2.448110 -6.726130 0.000000
				CHANNELS 3 Zrotation Yrotation Xrotation
				JOINT LeftFoot
				{
					OFFSET 2.562200 -7.039590 0.000000
					CHANNELS 3 Zrotation Yrotation Xrotation
					JOINT LeftToeBase
					{
						OFFSET 0.157640 -0.433110 2.322550
						CHANNELS 3 Zrotation Yrotation Xrotation
						End Site
						{
							OFFSET 0.000000 0.000000 0.000000
						}
					}
				}
			}
		}
	}
	JOINT RHipJoint
	{
		OFFSET 0.000000 0.000000 0.000000
		CHANNELS 3 Zrotation Yrotation Xrotation
		JOINT RightUpLeg
		{
			OFFSET -1.305520 -1.794630 0.839290
			CHANNELS 3 Zrotation Yrotation Xrotation
			JOINT RightLeg
			{
				OFFSET -2.542530 -6.985550 0.000000
				CHANNELS 3 Zrotation Yrotation Xrotation
				JOINT RightFoot
				{
					OFFSET -2.568260 -7.056230 0.000000
					CHANNELS 3 Zrotation Yrotation Xrotation
					JOINT RightToeBase
					{
						OFFSET -0.164730 -0.452590 2.363150
						CHANNELS 3 Zrotation Yrotation Xrotation
						End Site
						{
							OFFSET 0.000000 0.000000 0.000000
						}
					}
				}
			}
		}
	}
	JOINT LowerBack
	{
		OFFSET 0.000000 0.000000 0.000000
		CHANNELS 3 Zrotation Yrotation Xrotation
		JOINT Spine
		{
			OFFSET 0.028270 2.035590 -0.193380
			CHANNELS 3 Zrotation Yrotation Xrotation
			JOINT Spine1
			{
				OFFSET 0.056720 2.048850 -0.042750
				CHANNELS 3 Zrotation Yrotation Xrotation
				JOINT Neck
				{
					OFFSET 0.000000 0.000000 0.000000
					CHANNELS 3 Zrotation Yrotation Xrotation
					JOINT Neck1
					{
						OFFSET -0.054170 1.746240 0.172020
						CHANNELS 3 Zrotation Yrotation Xrotation
						JOINT Head
						{
							OFFSET 0.104070 1.761360 -0.123970
							CHANNELS 3 Zrotation Yrotation Xrotation
							End Site
							{
								OFFSET 0.000000 0.000000 0.000000
							}
						}
					}
				}
				JOINT LeftShoulder
				{
					OFFSET 0.000000 0.000000 0.000000
					CHANNELS 3 Zrotation Yrotation Xrotation
					JOINT LeftArm
					{
						OFFSET 3.362410 1.200890 -0.311210
						CHANNELS 3 Zrotation Yrotation Xrotation
						JOINT LeftForeArm
						{
							OFFSET 4.983000 -0.000000 -0.000000
							CHANNELS 3 Zrotation Yrotation Xrotation
							JOINT LeftHand
							{
								OFFSET 3.483560 -0.000000 -0.000000
								CHANNELS 3 Zrotation Yrotation Xrotation
								JOINT LeftFingerBase
								{
									OFFSET 0.000000 0.000000 0.000000
									CHANNELS 3 Zrotation Yrotation Xrotation
									JOINT LeftHandIndex1
									{
										OFFSET 0.715260 -0.000000 -0.000000
										CHANNELS 3 Zrotation Yrotation Xrotation
										End Site
										{
											OFFSET 0.000000 0.000000 0.000000
										}
									}
								}
								JOINT LThumb
								{
									OFFSET 0.000000 0.000000 0.000000
									CHANNELS 3 Zrotation Yrotation Xrotation
									End Site
									{
										OFFSET 0.000000 0.000000 0.000000
									}
								}
							}
						}
					}
				}
				JOINT RightShoulder
				{
					OFFSET 0.000000 0.000000 0.000000
					CHANNELS 3 Zrotation Yrotation Xrotation
					JOINT RightArm
					{
						OFFSET -3.136600 1.374050 -0.404650
						CHANNELS 3 Zrotation Yrotation Xrotation
						JOINT RightForeArm
						{
							OFFSET -5.241900 -0.000000 -0.000000
							CHANNELS 3 Zrotation Yrotation Xrotation
							JOINT RightHand
							{
								OFFSET -3.444170 -0.000000 -0.000000
								CHANNELS 3 Zrotation Yrotation Xrotation
								JOINT RightFingerBase
								{
									OFFSET 0.000000 0.000000 0.000000
									CHANNELS 3 Zrotation Yrotation Xrotation
									JOINT RightHandIndex1
									{
										OFFSET -0.622530 -0.000000 -0.000000
										CHANNELS 3 Zrotation Yrotation Xrotation
										End Site
										{
											OFFSET 0.000000 0.000000 0.000000
										}
									}
								}
								JOINT RThumb
								{
									OFFSET 0.000000 0.000000 0.000000
									CHANNELS 3 Zrotation Yrotation Xrotation
									End Site
									{
										OFFSET 0.000000 0.000000 0.000000
									}
								}
							}
						}
					}
				}
			}
		}
	}
}
MOTION
Frames: 8
Frame Time: 0.008333
2.157282 15.434649 8.627340 -4.391728 -2.904450 62.848195 -1.996992 -7.527252 -4.670756 -10.388740 4.281126 -44.907466 17.464055 22.276398 82.420834 4.486153 -12.700721 29.415402 0.001900 0.279700 0.768400 -2.494464 5.780374 -3.784166 10.317987 -0.246097 -41.161522 -12.756045 -21.690897 66.762947 -4.447089 8.047984 50.461394 -0.166200 -2.626200 7.239600 -8.226463 4.670417 3.679452 2.258784 4.551476 -4.569495 19.216964 3.138439 -2.287833 -16.192092 -5.727105 -17.849767 6.452412 -4.051622 3.269852 1.905200 -2.440900 6.383000 17.322835 -9.371812 -4.019460 -38.603125 -47.362334 33.739597 36.958950 -31.814846 -17.546985 -2.562116 2.399861 -29.127864 33.933335 -10.115451 -9.663400 -7.125000 0.000000 0.000000 5.142100 13.057300 -3.863400 -14.954382 10.220698 3.185988 14.670792 31.679374 8.372876 -33.629972 32.609728 -17.820507 -0.795685 0.588270 -11.559161 -6.278565 7.885941 -0.701800 7.125000 0.000000 0.000000 15.395000 -22.843400 8.513200 
2.156805 15.459665 8.693932 -4.380811 -2.934509 62.682413 -1.813036 -7.400558 -4.633461 -10.282103 4.571440 -44.918047 17.869481 22.233450 83.835285 4.689850 -13.598445 28.341720 0.000000 0.031800 0.087300 -2.750828 5.643968 -3.770384 10.415784 -0.578242 -41.686547 -13.336880 -21.856145 68.615019 -4.365870 8.419712 49.615450 -0.159900 -2.576500 7.101700 -8.262063 4.752741 3.930406 2.244620 4.650701 -4.586561 19.183948 3.196361 -2.354626 -16.230743 -5.714130 -17.962177 6.452074 -4.020697 2.979794 1.938100 -2.416400 6.225600 17.288343 -9.001762 -3.600973 -40.710659 -47.133977 34.565995 38.766353 -33.167536 -18.774654 -2.221254 2.310097 -29.436366 33.555752 -10.665580 -9.613200 -7.125000 0.000000 0.000000 4.664300 12.847500 -3.522400 -14.899178 9.779457 3.137017 15.878532 31.001688 9.709909 -35.064284 33.718378 -19.139378 -0.986624 0.636096 -12.249109 -5.040657 8.613299 -0.571800 7.125000 0.000000 0.000000 16.325500 -22.250500 9.302200 
2.156567 15.484682 8.759810 -4.368805 -2.960550 62.533233 -1.625750 -7.269104 -4.600071 -10.140069 4.876452 -44.923427 18.285826 22.181883 85.270352 4.915814 -14.592673 27.232338 0.001900 -0.281600 -0.773700 -3.005716 5.506676 -3.757338 10.496587 -0.925717 -42.207290 -13.915261 -22.001695 70.485263 -4.307155 8.881093 48.845333 -0.155500 -2.541100 7.003600 -8.311981 4.838194 4.165016 2.232002 4.756916 -4.601912 19.159682 3.256659 -2.420352 -16.260925 -5.705485 -18.071794 6.456599 -3.997506 2.693006 1.964600 -2.394500 6.068700 17.269132 -8.647037 -3.225013 -42.846218 -46.848041 35.415685 40.659090 -34.546234 -20.091443 -1.901956 2.195166 -29.735397 33.008510 -11.064532 -9.400400 -7.125000 0.000000 0.000000 4.121000 12.866500 -3.108100 -14.850904 9.356836 3.107677 16.932650 30.247947 11.035274 -36.559489 34.835858 -20.556353 -1.155949 0.690357 -12.824155 -3.765415 9.265136 -0.405400 7.125000 0.000000 0.000000 17.261400 -21.737400 10.098100 
2.156805 15.509818 8.825330 -4.356120 -2.959062 62.408336 -1.430550 -7.133481 -4.573841 -9.944089 5.186577 -44.927068 18.718223 22.122552 86.727176 5.156292 -15.668328 26.095613 0.009700 -0.636800 -1.749900 -3.259291 5.367375 -3.743059 10.580236 -1.302878 -42.731759 -14.482087 -22.124226 72.373954 -4.270148 9.460866 48.114021 -0.144000 -2.445900 6.739600 -8.347936 4.914772 4.373235 2.221884 4.852940 -4.615939 19.146850 3.311037 -2.481863 -16.296656 -5.706375 -18.169616 6.472170 -3.988513 2.404856 2.001300 -2.376700 5.905000 17.260390 -8.309888 -2.885426 -44.971764 -46.472225 36.273363 42.640916 -35.947478 -21.508983 -1.599053 2.058187 -30.061520 32.261961 -11.364712 -9.056100 -7.125000 0.000000 0.000000 3.477600 13.051600 -2.607300 -14.814428 8.952105 3.087839 17.915092 29.453927 12.335150 -38.153031 35.973506 -22.101156 -1.299667 0.749806 -13.284873 -2.474641 9.821264 -0.211400 7.125000 0.000000 0.000000 18.187900 -21.317300 10.881600 
2.157163 15.535073 8.891327 -4.349030 -2.936824 62.309991 -1.228712 -6.992465 -4.552254 -9.694874 5.506297 -44.921754 19.167634 22.053782 88.196811 5.398538 -16.787545 24.949666 0.024000 -1.000200 -2.749400 -3.509844 5.226317 -3.727781 10.660880 -1.695650 -43.253016 -15.032970 -22.224927 74.280901 -4.253949 10.175159 47.385752 -0.122000 -2.251900 6.202300 -8.377556 4.981344 4.548460 2.213910 4.937849 -4.628759 19.156226 3.359435 -2.540647 -16.345947 -5.717794 -18.249154 6.499502 -3.994501 2.114606 2.052600 -2.363300 5.733100 17.259295 -7.991349 -2.580603 -47.049915 -45.984669 37.140079 44.735903 -37.368275 -23.055560 -1.308291 1.905394 -30.458161 31.327837 -11.638347 -8.639000 -7.125000 0.000000 0.000000 2.724400 13.304500 -2.026600 -14.792048 8.564748 3.071557 18.899922 28.631834 13.584350 -39.913424 37.156985 -23.838638 -1.418365 0.823259 -13.746321 -1.111062 10.209735 0.011300 7.125000 0.000000 0.000000 19.153900 -21.065600 11.645000 
2.157639 15.560686 8.958157 -4.345837 -2.884124 62.242956 -1.019702 -6.846467 -4.534820 -9.383705 5.824186 -44.903149 19.633493 21.975655 89.671888 5.628211 -17.911863 23.826605 0.042400 -1.328400 -3.652800 -3.756968 5.082144 -3.710296 10.744295 -2.110613 -43.774408 -15.567109 -22.303022 76.210019 -4.257567 11.031187 46.627377 -0.088400 -1.918000 5.279200 -8.384004 5.030073 4.683031 2.208476 4.999241 -4.641750 19.183170 3.396736 -2.598577 -16.406623 -5.738366 -18.309527 6.535018 -4.013229 1.828388 2.117700 -2.353800 5.559100 17.263425 -7.692669 -2.310102 -49.029586 -45.362010 38.013882 46.973456 -38.800730 -24.760458 -1.020919 1.740131 -30.971891 30.178483 -11.964191 -8.187900 -7.125000 0.000000 0.000000 1.825600 13.536000 -1.348300 -14.783323 8.196261 3.052468 19.962820 27.785858 14.797200 -41.866778 38.388179 -25.797500 -1.503060 0.885159 -14.271310 0.241898 10.559036 0.240300 7.125000 0.000000 0.000000 20.081700 -20.832600 12.398000 
2.157877 15.586536 9.026298 -4.350215 -2.811083 62.206740 -0.803810 -6.695014 -4.519663 -9.017705 6.143634 -44.870765 20.113233 21.886981 91.143393 5.831047 -18.987660 22.746379 0.061200 -1.596800 -4.392600 -3.999663 4.934451 -3.690618 10.822068 -2.542100 -44.290602 -16.091472 -22.359800 78.165796 -4.279287 12.009031 45.835671 -0.052300 -1.476300 4.060500 -8.371857 5.059380 4.774973 2.204818 5.034887 -4.655384 19.219210 3.420705 -2.653123 -16.463883 -5.763800 -18.364298 6.572702 -4.037547 1.553708 2.187400 -2.346100 5.393800 17.272307 -7.414745 -2.074597 -50.855112 -44.590961 38.910936 49.384965 -40.235570 -26.661358 -0.741145 1.569501 -31.532912 28.924714 -12.346926 -7.749900 -7.125000 0.000000 0.000000 0.857200 13.705900 -0.629700 -14.788835 7.849720 3.025352 21.135069 26.918282 15.971246 -44.069464 39.677549 -28.037631 -1.555870 0.938926 -15.049346 1.665607 10.822585 0.483700 7.125000 0.000000 0.000000 21.032200 -20.667800 13.156600 
2.157520 15.612387 9.095512 -4.358726 -2.716989 62.201354 -0.579182 -6.536716 -4.505469 -8.598502 6.471580 -44.823392 20.603862 21.786474 92.605450 6.000681 -19.984485 21.718608 0.077200 -1.792600 -4.932800 -4.238812 4.782186 -3.669180 10.891669 -2.993973 -44.804208 -16.618033 -22.396013 80.157714 -4.315406 13.070427 45.024887 -0.022100 -0.959400 2.637100 -8.334874 5.065431 4.826587 2.202310 5.040434 -4.669779 19.252668 3.428275 -2.702011 -16.511721 -5.789841 -18.418685 6.610169 -4.062111 1.292786 2.261100 -2.337800 5.239300 17.284863 -7.159657 -1.871050 -52.467391 -43.684890 39.819148 52.004111 -41.643978 -28.782868 -0.465674 1.388893 -32.101963 27.522982 -12.750857 -7.287400 -7.125000 0.000000 0.000000 -0.203800 13.867400 0.149000 -14.810900 7.527135 2.986439 22.433695 26.026188 17.099197 -46.578741 41.031191 -30.626747 -1.574908 0.979712 -16.187725 3.189439 10.986487 0.740000 7.125000 0.000000 0.000000 22.024600 -20.578300 13.928400 
